<svg xmlns="http://www.w3.org/2000/svg" xmlns:xlink="http://www.w3.org/1999/xlink" width="500" zoomAndPan="magnify" viewBox="0 0 375 374.999991" height="500" preserveAspectRatio="xMidYMid meet" version="1.2"><defs><clipPath id="f9935b9174"><path d="M 19.246094 19.246094 L 355.753906 19.246094 L 355.753906 355.753906 L 19.246094 355.753906 Z M 19.246094 19.246094 "/></clipPath><clipPath id="19712f09d2"><path d="M 187.5 19.246094 C 94.578125 19.246094 19.246094 94.578125 19.246094 187.5 C 19.246094 280.421875 94.578125 355.753906 187.5 355.753906 C 280.421875 355.753906 355.753906 280.421875 355.753906 187.5 C 355.753906 94.578125 280.421875 19.246094 187.5 19.246094 Z M 187.5 19.246094 "/></clipPath><clipPath id="5c818a87c4"><path d="M 111.171875 68.6875 L 277.671875 68.6875 L 277.671875 306.4375 L 111.171875 306.4375 Z M 111.171875 68.6875 "/></clipPath><clipPath id="36e56cec5d"><path d="M 100.597656 68.6875 L 267 68.6875 L 267 306.4375 L 100.597656 306.4375 Z M 100.597656 68.6875 "/></clipPath></defs><g id="e28af2b705"><g clip-rule="nonzero" clip-path="url(#f9935b9174)"><g clip-rule="nonzero" clip-path="url(#19712f09d2)"><path style=" stroke:none;fill-rule:nonzero;fill:#8c52ff;fill-opacity:1;" d="M 19.246094 19.246094 L 355.753906 19.246094 L 355.753906 355.753906 L 19.246094 355.753906 Z M 19.246094 19.246094 "/></g></g><g clip-rule="nonzero" clip-path="url(#5c818a87c4)"><path style=" stroke:none;fill-rule:nonzero;fill:#000000;fill-opacity:1;" d="M 276.484375 69.917969 C 275.640625 69.113281 274.632812 68.703125 273.46875 68.6875 L 230.613281 68.6875 C 230.332031 68.6875 230.054688 68.714844 229.78125 68.765625 C 229.507812 68.820312 229.242188 68.902344 228.984375 69.007812 C 228.726562 69.113281 228.484375 69.246094 228.25 69.398438 C 228.019531 69.554688 227.804688 69.730469 227.605469 69.929688 C 227.410156 70.125 227.234375 70.339844 227.078125 70.570312 C 226.921875 70.804688 226.792969 71.046875 226.6875 71.304688 C 226.578125 71.5625 226.5 71.828125 226.445312 72.101562 C 226.390625 72.378906 226.363281 72.652344 226.363281 72.933594 L 226.363281 228.742188 C 226.433594 232.011719 225.613281 235.039062 223.902344 237.828125 C 223.507812 238.441406 223.097656 239.046875 222.667969 239.632812 C 222.234375 240.222656 221.789062 240.800781 221.320312 241.359375 C 220.855469 241.921875 220.371094 242.46875 219.871094 243 C 219.371094 243.527344 218.851562 244.042969 218.320312 244.542969 C 217.785156 245.039062 217.238281 245.523438 216.675781 245.984375 C 216.113281 246.449219 215.535156 246.894531 214.941406 247.324219 C 214.351562 247.75 213.746094 248.160156 213.128906 248.550781 C 212.511719 248.941406 211.886719 249.308594 211.246094 249.660156 C 210.605469 250.011719 209.953125 250.339844 209.292969 250.652344 C 208.632812 250.960938 207.960938 251.25 207.285156 251.515625 C 206.605469 251.785156 205.917969 252.03125 205.222656 252.253906 C 204.527344 252.480469 203.828125 252.683594 203.121094 252.863281 C 202.414062 253.042969 201.699219 253.203125 200.984375 253.339844 C 200.265625 253.472656 199.546875 253.585938 198.820312 253.679688 C 198.097656 253.769531 197.371094 253.835938 196.640625 253.882812 C 195.914062 253.925781 195.183594 253.949219 194.453125 253.949219 C 193.726562 253.949219 192.996094 253.925781 192.265625 253.878906 C 191.539062 253.832031 190.8125 253.765625 190.089844 253.671875 C 189.363281 253.578125 188.644531 253.464844 187.925781 253.328125 C 187.210938 253.191406 186.496094 253.03125 185.789062 252.851562 C 185.082031 252.667969 184.382812 252.464844 183.6875 252.238281 C 182.996094 252.015625 182.308594 251.765625 181.628906 251.5 C 180.949219 251.230469 180.28125 250.941406 179.621094 250.628906 C 178.960938 250.320312 178.308594 249.988281 177.671875 249.636719 C 177.03125 249.285156 176.402344 248.914062 175.785156 248.523438 C 175.171875 248.132812 174.566406 247.722656 173.976562 247.292969 C 173.386719 246.863281 172.808594 246.417969 172.246094 245.953125 C 171.683594 245.488281 171.136719 245.007812 170.605469 244.507812 C 170.070312 244.007812 169.554688 243.492188 169.054688 242.960938 C 168.554688 242.429688 168.074219 241.882812 167.605469 241.320312 C 167.140625 240.757812 166.695312 240.183594 166.265625 239.59375 C 165.835938 239.003906 165.425781 238.398438 165.03125 237.785156 C 164.171875 236.421875 163.523438 234.960938 163.089844 233.40625 C 162.65625 231.855469 162.453125 230.269531 162.484375 228.65625 L 162.484375 72.933594 C 162.484375 72.652344 162.453125 72.378906 162.398438 72.105469 C 162.34375 71.832031 162.265625 71.566406 162.15625 71.308594 C 162.050781 71.050781 161.917969 70.808594 161.765625 70.578125 C 161.609375 70.34375 161.433594 70.128906 161.234375 69.933594 C 161.039062 69.738281 160.824219 69.5625 160.59375 69.40625 C 160.363281 69.25 160.117188 69.121094 159.859375 69.011719 C 159.601562 68.90625 159.335938 68.824219 159.0625 68.769531 C 158.789062 68.714844 158.515625 68.6875 158.234375 68.6875 L 115.378906 68.6875 C 115.101562 68.6875 114.824219 68.714844 114.554688 68.773438 C 114.28125 68.828125 114.015625 68.910156 113.757812 69.015625 C 113.5 69.121094 113.257812 69.253906 113.027344 69.410156 C 112.792969 69.5625 112.582031 69.738281 112.382812 69.9375 C 112.1875 70.132812 112.011719 70.347656 111.855469 70.578125 C 111.699219 70.808594 111.570312 71.054688 111.460938 71.3125 C 111.355469 71.566406 111.273438 71.832031 111.21875 72.105469 C 111.164062 72.378906 111.132812 72.652344 111.132812 72.933594 L 111.175781 229.761719 C 113.726562 272.769531 153.570312 306.625 194.761719 306.4375 C 197.140625 306.398438 199.511719 306.265625 201.878906 306.03125 C 204.246094 305.796875 206.597656 305.464844 208.9375 305.03125 C 211.277344 304.601562 213.59375 304.074219 215.886719 303.449219 C 218.179688 302.824219 220.445312 302.105469 222.679688 301.289062 C 224.914062 300.476562 227.109375 299.566406 229.265625 298.570312 C 231.425781 297.570312 233.539062 296.484375 235.605469 295.308594 C 237.671875 294.136719 239.6875 292.875 241.648438 291.53125 C 243.609375 290.1875 245.511719 288.765625 247.355469 287.261719 C 249.195312 285.761719 250.972656 284.183594 252.683594 282.53125 C 254.394531 280.878906 256.03125 279.160156 257.597656 277.371094 C 259.164062 275.582031 260.652344 273.734375 262.066406 271.820312 C 263.476562 269.90625 264.804688 267.9375 266.050781 265.914062 C 267.296875 263.890625 268.457031 261.816406 269.53125 259.695312 C 270.601562 257.574219 271.585938 255.414062 272.476562 253.207031 C 273.367188 251.003906 274.167969 248.769531 274.871094 246.5 C 275.574219 244.226562 276.183594 241.933594 276.695312 239.609375 C 277.398438 236.367188 277.722656 233.082031 277.671875 229.761719 L 277.714844 72.933594 C 277.707031 71.761719 277.296875 70.757812 276.484375 69.917969 Z M 276.484375 69.917969 "/></g><g clip-rule="nonzero" clip-path="url(#36e56cec5d)"><path style=" stroke:none;fill-rule:nonzero;fill:#c1a9de;fill-opacity:1;" d="M 265.742188 69.917969 C 264.898438 69.113281 263.894531 68.703125 262.730469 68.6875 L 219.917969 68.6875 C 219.636719 68.6875 219.363281 68.714844 219.089844 68.765625 C 218.816406 68.820312 218.550781 68.902344 218.292969 69.007812 C 218.035156 69.113281 217.789062 69.246094 217.558594 69.398438 C 217.328125 69.554688 217.113281 69.730469 216.914062 69.925781 C 216.71875 70.125 216.542969 70.339844 216.386719 70.570312 C 216.230469 70.800781 216.101562 71.046875 215.996094 71.304688 C 215.886719 71.5625 215.808594 71.828125 215.753906 72.101562 C 215.699219 72.375 215.671875 72.652344 215.671875 72.929688 L 215.671875 228.65625 C 215.742188 231.921875 214.921875 234.949219 213.210938 237.734375 C 212.820312 238.351562 212.410156 238.953125 211.980469 239.542969 C 211.550781 240.128906 211.101562 240.707031 210.636719 241.265625 C 210.167969 241.828125 209.6875 242.375 209.1875 242.902344 C 208.683594 243.433594 208.167969 243.949219 207.636719 244.445312 C 207.105469 244.945312 206.554688 245.425781 205.992188 245.890625 C 205.429688 246.351562 204.855469 246.800781 204.261719 247.226562 C 203.671875 247.652344 203.070312 248.0625 202.453125 248.453125 C 201.835938 248.84375 201.207031 249.210938 200.570312 249.5625 C 199.929688 249.914062 199.28125 250.242188 198.621094 250.550781 C 197.957031 250.863281 197.289062 251.152344 196.609375 251.417969 C 195.933594 251.683594 195.246094 251.929688 194.554688 252.15625 C 193.859375 252.378906 193.160156 252.582031 192.453125 252.761719 C 191.746094 252.945312 191.035156 253.101562 190.316406 253.238281 C 189.601562 253.375 188.882812 253.488281 188.15625 253.578125 C 187.433594 253.667969 186.707031 253.738281 185.980469 253.78125 C 185.253906 253.828125 184.523438 253.847656 183.796875 253.847656 C 183.066406 253.847656 182.335938 253.824219 181.609375 253.777344 C 180.882812 253.730469 180.15625 253.664062 179.433594 253.570312 C 178.710938 253.480469 177.988281 253.367188 177.273438 253.226562 C 176.558594 253.089844 175.847656 252.933594 175.140625 252.75 C 174.433594 252.570312 173.734375 252.367188 173.039062 252.140625 C 172.347656 251.914062 171.660156 251.667969 170.984375 251.398438 C 170.304688 251.128906 169.636719 250.839844 168.976562 250.53125 C 168.316406 250.21875 167.667969 249.890625 167.027344 249.539062 C 166.390625 249.1875 165.761719 248.816406 165.144531 248.425781 C 164.53125 248.035156 163.925781 247.625 163.335938 247.195312 C 162.746094 246.769531 162.171875 246.320312 161.609375 245.855469 C 161.046875 245.390625 160.5 244.910156 159.96875 244.410156 C 159.4375 243.914062 158.921875 243.398438 158.421875 242.867188 C 157.921875 242.335938 157.4375 241.789062 156.972656 241.226562 C 156.507812 240.664062 156.0625 240.089844 155.632812 239.5 C 155.203125 238.910156 154.792969 238.308594 154.402344 237.691406 C 153.542969 236.328125 152.894531 234.871094 152.460938 233.316406 C 152.027344 231.765625 151.824219 230.183594 151.855469 228.570312 L 151.855469 72.929688 C 151.855469 72.652344 151.828125 72.375 151.773438 72.101562 C 151.71875 71.828125 151.636719 71.566406 151.53125 71.308594 C 151.421875 71.050781 151.292969 70.804688 151.136719 70.574219 C 150.980469 70.34375 150.804688 70.128906 150.609375 69.933594 C 150.414062 69.734375 150.199219 69.558594 149.96875 69.40625 C 149.734375 69.25 149.492188 69.121094 149.234375 69.011719 C 148.976562 68.90625 148.710938 68.824219 148.441406 68.769531 C 148.167969 68.714844 147.890625 68.6875 147.613281 68.6875 L 104.796875 68.6875 C 104.519531 68.6875 104.246094 68.714844 103.972656 68.773438 C 103.699219 68.828125 103.433594 68.910156 103.179688 69.015625 C 102.921875 69.121094 102.675781 69.253906 102.445312 69.410156 C 102.214844 69.5625 102 69.738281 101.804688 69.9375 C 101.609375 70.132812 101.433594 70.347656 101.277344 70.578125 C 101.121094 70.808594 100.992188 71.054688 100.882812 71.308594 C 100.777344 71.566406 100.695312 71.832031 100.640625 72.105469 C 100.585938 72.375 100.558594 72.652344 100.554688 72.929688 L 100.597656 229.675781 C 103.144531 272.660156 142.949219 306.496094 184.105469 306.308594 C 186.480469 306.269531 188.847656 306.136719 191.210938 305.902344 C 193.578125 305.667969 195.925781 305.335938 198.261719 304.902344 C 200.597656 304.472656 202.914062 303.945312 205.207031 303.320312 C 207.496094 302.695312 209.757812 301.976562 211.992188 301.164062 C 214.222656 300.347656 216.417969 299.441406 218.574219 298.445312 C 220.730469 297.449219 222.839844 296.363281 224.90625 295.1875 C 226.96875 294.011719 228.980469 292.753906 230.941406 291.410156 C 232.902344 290.070312 234.800781 288.648438 236.640625 287.144531 C 238.484375 285.644531 240.257812 284.066406 241.964844 282.417969 C 243.675781 280.765625 245.3125 279.046875 246.875 277.257812 C 248.441406 275.472656 249.929688 273.621094 251.339844 271.710938 C 252.75 269.796875 254.078125 267.832031 255.320312 265.808594 C 256.566406 263.785156 257.726562 261.710938 258.796875 259.59375 C 259.867188 257.472656 260.851562 255.3125 261.742188 253.109375 C 262.632812 250.90625 263.429688 248.671875 264.132812 246.402344 C 264.835938 244.132812 265.445312 241.839844 265.957031 239.519531 C 266.65625 236.273438 266.980469 232.992188 266.929688 229.675781 L 266.972656 72.929688 C 266.964844 71.761719 266.554688 70.757812 265.742188 69.917969 Z M 265.742188 69.917969 "/></g></g></svg>